# xmcd CD database file
#
# Track frame offsets:
#	150
#	9150
#	23836
#	43402
#	61027
#	77807
#	97430
#	132333
#	150570
#	168627
#	192088
#
# Disc length: 2706 seconds
#
# Revision: 0
# Processed by: cddbd v1.5.2PL0 Copyright (c) Steve Scherf et al.
# Submitted via: CDex 1.51
#
DISCID=8b0a900b
DTITLE=EAGLES - No More Walks In The Wood CD-1
DYEAR=2007
DGENRE=Country
TTITLE0=No More Walks In The Wood
TTITLE1=How Long
TTITLE2=Busy Being Fabulous
TTITLE3=What Do I Do With My Heart
TTITLE4=Guilty Of The Crime 
TTITLE5=I Don't Want To Hear Any More
TTITLE6=Waiting In The Weeds
TTITLE7=No More Cloudy Days
TTITLE8=Fast Company 
TTITLE9=Do Something
TTITLE10=You Are Not Alone
EXTD=YEAR: 2007
EXTT0=
EXTT1=
EXTT2=
EXTT3=
EXTT4=
EXTT5=
EXTT6=
EXTT7=
EXTT8=
EXTT9=
EXTT10=
PLAYORDER=
